<?xml version="1.0" standalone="no"?>
<!DOCTYPE svg PUBLIC "-//W3C//DTD SVG 20010904//EN"
 "http://www.w3.org/TR/2001/REC-SVG-20010904/DTD/svg10.dtd">
<svg version="1.0" xmlns="http://www.w3.org/2000/svg"
 width="1024.000000pt" height="1024.000000pt" viewBox="0 0 1024.000000 1024.000000"
 preserveAspectRatio="xMidYMid meet">

<g transform="translate(0.000000,1024.000000) scale(0.100000,-0.100000)"
fill="#000000" stroke="none">
<path d="M0 5120 l0 -5120 5120 0 5120 0 0 5120 0 5120 -5120 0 -5120 0 0
-5120z m6205 1255 l0 -295 -727 0 -728 0 0 -345 0 -345 570 0 570 0 0 -290 0
-290 -570 0 -570 0 0 -602 0 -603 -325 0 -325 0 0 1533 0 1532 1053 0 1052 0
0 -295z m-2673 -482 l-3 -198 -287 -287 -287 -288 288 -288 288 -288 2 -192
c1 -106 2 -192 2 -192 0 0 -205 205 -455 455 l-455 455 -3 57 -3 57 453 453
c249 249 455 453 458 453 3 0 4 -89 2 -197z m4056 -768 l3 -53 -348 -354
c-191 -194 -393 -399 -447 -456 -55 -56 -103 -102 -108 -102 -4 0 -8 82 -8
183 l0 182 280 280 c154 154 285 288 291 299 10 16 -15 44 -189 215 -109 108
-240 242 -290 297 l-92 102 0 185 0 185 453 -455 452 -454 3 -54z"/>
</g>
</svg>
